<svg width="24" height="24" viewBox="0 0 24 24" fill="none" xmlns="http://www.w3.org/2000/svg">
<path fill-rule="evenodd" clip-rule="evenodd" d="M2.66667 0H8C9.47067 0 10.6667 1.196 10.6667 2.66667V8C10.6667 9.47067 9.47067 10.6667 8 10.6667H2.66667C1.196 10.6667 0 9.47067 0 8V2.66667C0 1.196 1.196 0 2.66667 0ZM16 0H21.3333C22.804 0 24 1.196 24 2.66667V8C24 9.47067 22.804 10.6667 21.3333 10.6667H16C14.5293 10.6667 13.3333 9.47067 13.3333 8V2.66667C13.3333 1.196 14.5293 0 16 0ZM8 13.3333H2.66667C1.196 13.3333 0 14.5293 0 16V21.3333C0 22.804 1.196 24 2.66667 24H8C9.47067 24 10.6667 22.804 10.6667 21.3333V16C10.6667 14.5293 9.47067 13.3333 8 13.3333ZM16 13.3333H21.3333C22.804 13.3333 24 14.5293 24 16V21.3333C24 22.804 22.804 24 21.3333 24H16C14.5293 24 13.3333 22.804 13.3333 21.3333V16C13.3333 14.5293 14.5293 13.3333 16 13.3333Z" fill="#3B86FF"/>
</svg>
