<svg width="27" height="24" viewBox="0 0 27 24" fill="none" xmlns="http://www.w3.org/2000/svg">
<path d="M21.3125 16V18.6875H18.625V16H21.3125ZM21.3125 10.6875V13.3125H18.625V10.6875H21.3125ZM24 21.3125V8H13.3125V10.6875H16V13.3125H13.3125V16H16V18.6875H13.3125V21.3125H24ZM10.625 5.3125V2.6875H8V5.3125H10.625ZM10.625 10.6875V8H8V10.6875H10.625ZM10.625 16V13.3125H8V16H10.625ZM10.625 21.3125V18.6875H8V21.3125H10.625ZM5.3125 5.3125V2.6875H2.625V5.3125H5.3125ZM5.3125 10.6875V8H2.625V10.6875H5.3125ZM5.3125 16V13.3125H2.625V16H5.3125ZM5.3125 21.3125V18.6875H2.625V21.3125H5.3125ZM13.3125 5.3125H26.625V24H0V0H13.3125V5.3125Z" fill="#003ACC"/>
</svg>
