<svg width="30" height="20" viewBox="0 0 30 20" fill="none" xmlns="http://www.w3.org/2000/svg">
<path fill-rule="evenodd" clip-rule="evenodd" d="M0 1.66667C0 0.746667 0.746667 0 1.66667 0C2.58667 0 3.33333 0.746667 3.33333 1.66667C3.33333 2.58667 2.58667 3.33333 1.66667 3.33333C0.746667 3.33333 0 2.58667 0 1.66667ZM0 10C0 9.08 0.746667 8.33333 1.66667 8.33333C2.58667 8.33333 3.33333 9.08 3.33333 10C3.33333 10.92 2.58667 11.6667 1.66667 11.6667C0.746667 11.6667 0 10.92 0 10ZM1.66667 16.6667C0.746667 16.6667 0 17.4133 0 18.3333C0 19.2533 0.746667 20 1.66667 20C2.58667 20 3.33333 19.2533 3.33333 18.3333C3.33333 17.4133 2.58667 16.6667 1.66667 16.6667ZM8.22584 8.33333H28.4408C29.2992 8.33333 30.0008 9.035 30.0008 9.89333V10.1067C30.0008 10.965 29.2992 11.6667 28.4408 11.6667H8.22584C7.36751 11.6667 6.66751 10.965 6.66751 10.1067V9.89333C6.66751 9.035 7.36751 8.33333 8.22584 8.33333ZM28.4408 16.6667H8.22584C7.36751 16.6667 6.66751 17.3683 6.66751 18.2267V18.44C6.66751 19.2983 7.36751 20 8.22584 20H28.4408C29.2992 20 30.0008 19.2983 30.0008 18.44V18.2267C30.0008 17.3683 29.2992 16.6667 28.4408 16.6667ZM8.22584 0H28.4408C29.2992 0 30.0008 0.701667 30.0008 1.56V1.77333C30.0008 2.63167 29.2992 3.33333 28.4408 3.33333H8.22584C7.36751 3.33333 6.66751 2.63167 6.66751 1.77333V1.56C6.66751 0.701667 7.36751 0 8.22584 0Z" fill="#003ACC"/>
</svg>
