<svg width="17" height="24" viewBox="0 0 17 24" fill="none" xmlns="http://www.w3.org/2000/svg">
<path fill-rule="evenodd" clip-rule="evenodd" d="M9.29577 23.0423L8.39437 24C8.16901 23.7371 7.86855 23.3897 7.49296 22.9577C7.11737 22.5258 6.44131 21.662 5.46479 20.3662C4.48826 19.0704 3.6338 17.8122 2.90141 16.5915C2.16901 15.3709 1.50235 13.9906 0.901408 12.4507C0.300469 10.9108 0 9.55869 0 8.39437C0 6.06573 0.807512 4.0939 2.42254 2.47887C4.07512 0.826291 6.06573 0 8.39437 0C10.723 0 12.7042 0.816902 14.338 2.4507C15.9718 4.08451 16.7887 6.06573 16.7887 8.39437C16.7887 9.55869 16.4977 10.892 15.9155 12.3944C15.3333 13.8967 14.6291 15.3052 13.8028 16.6197C12.9765 17.9343 12.1596 19.1643 11.3521 20.3099C10.5446 21.4554 9.85915 22.3662 9.29577 23.0423ZM6.25353 10.5352C6.85447 11.0986 7.56809 11.3803 8.39438 11.3803C9.22067 11.3803 9.92489 11.0892 10.5071 10.5071C11.0892 9.92489 11.3803 9.22067 11.3803 8.39438C11.3803 7.56809 11.0892 6.86386 10.5071 6.2817C9.92489 5.69954 9.22067 5.40846 8.39438 5.40846C7.56809 5.40846 6.86386 5.69954 6.2817 6.2817C5.69954 6.86386 5.40846 7.56809 5.40846 8.39438C5.40846 9.22067 5.69015 9.93428 6.25353 10.5352Z" fill="#003ACC"/>
</svg>
